<svg xmlns="http://www.w3.org/2000/svg" width="500" height="425.282" viewBox="0 0 500 425.282">
  <g id="Group_210" data-name="Group 210" transform="translate(0 -49.938)">
    <g id="Shadows">
      <g id="Shadows-2" data-name="Shadows">
        <ellipse id="path--inject-112" cx="193.89" cy="11.32" rx="193.89" ry="11.32" transform="translate(56.11 452.579)" fill="#fafafa"/>
      </g>
    </g>
    <g id="Background_Complete" data-name="Background Complete">
      <g id="Detailed_Background" data-name="Detailed Background">
        <g id="Group_74" data-name="Group 74">
          <rect id="Rectangle_115" data-name="Rectangle 115" width="500" height="0.25" transform="translate(0 406.059)" fill="#ebebeb"/>
          <rect id="Rectangle_116" data-name="Rectangle 116" width="53.07" height="0.25" transform="translate(370.492 416.549)" fill="#f5f5f5"/>
          <rect id="Rectangle_117" data-name="Rectangle 117" width="58.66" height="0.25" transform="translate(272.56 421.019)" fill="#f5f5f5"/>
          <rect id="Rectangle_118" data-name="Rectangle 118" width="19.19" height="0.25" transform="translate(340.921 421.019)" fill="#f5f5f5"/>
          <rect id="Rectangle_119" data-name="Rectangle 119" width="43.19" height="0.25" transform="translate(100.47 416.549)" fill="#f5f5f5"/>
          <rect id="Rectangle_120" data-name="Rectangle 120" width="15.44" height="0.25" transform="translate(79.46 414.549)" fill="#f5f5f5"/>
          <rect id="Rectangle_121" data-name="Rectangle 121" width="54.2" height="0.25" transform="translate(131.47 420.769)" fill="#f5f5f5"/>
        </g>
        <g id="Group_75" data-name="Group 75">
          <path id="Path_952" data-name="Path 952" d="M238.4,341.53H45.305a5.709,5.709,0,0,1-5.7-5.71V64.39a5.71,5.71,0,0,1,5.7-5.66H238.4a5.711,5.711,0,0,1,5.71,5.71h0V335.82A5.71,5.71,0,0,1,238.4,341.53ZM45.305,58.93a5.46,5.46,0,0,0-5.45,5.46V335.82a5.459,5.459,0,0,0,5.45,5.46H238.4a5.47,5.47,0,0,0,5.46-5.46V64.39a5.471,5.471,0,0,0-5.46-5.46Z" fill="#ebebeb"/>
          <path id="Path_953" data-name="Path 953" d="M454.7,341.53h-193.1a5.719,5.719,0,0,1-5.71-5.71V64.39a5.721,5.721,0,0,1,5.71-5.66H454.7a5.71,5.71,0,0,1,5.69,5.66V335.82A5.71,5.71,0,0,1,454.7,341.53Zm-193.1-282.6a5.47,5.47,0,0,0-5.46,5.46V335.82a5.469,5.469,0,0,0,5.46,5.46H454.7a5.47,5.47,0,0,0,5.46-5.46V64.39a5.471,5.471,0,0,0-5.46-5.46Z" fill="#ebebeb"/>
        </g>
        <g id="Group_85" data-name="Group 85">
          <path id="Path_954" data-name="Path 954" d="M78.436,216.178H71.274l-1.989-2.6H80.425Z" fill="#f0f0f0"/>
          <g id="Group_84" data-name="Group 84">
            <g id="Group_83" data-name="Group 83">
              <g id="Group_82" data-name="Group 82">
                <path id="Path_955" data-name="Path 955" d="M89.449,184.3a14.586,14.586,0,0,1-4.9,10.865,9.577,9.577,0,0,0-3.327,7.144v1.109H68.485v-1.109a9.587,9.587,0,0,0-3.319-7.137,14.6,14.6,0,0,1,10.455-25.5A14.708,14.708,0,0,1,89.449,184.3Z" fill="#f0f0f0"/>
                <g id="Group_79" data-name="Group 79">
                  <g id="Group_76" data-name="Group 76">
                    <rect id="Rectangle_122" data-name="Rectangle 122" width="0.88" height="15.319" transform="matrix(0.98, -0.2, 0.2, 0.98, 68.853, 188.43)" fill="#fff"/>
                  </g>
                  <g id="Group_77" data-name="Group 77">
                    <rect id="Rectangle_123" data-name="Rectangle 123" width="15.319" height="0.88" transform="translate(76.937 203.265) rotate(-78.511)" fill="#fff"/>
                  </g>
                  <g id="Group_78" data-name="Group 78">
                    <path id="Path_956" data-name="Path 956" d="M76.624,194.871l-1.768-3.2-1.771,3.2-3.317-3.818.665-.577,2.492,2.869,1.931-3.49,1.93,3.489,2.491-2.868.665.577Z" fill="#fff"/>
                  </g>
                </g>
                <path id="Path_957" data-name="Path 957" d="M81.229,203.352V213.51l-12.745.066V203.418Z" fill="#f0f0f0"/>
                <g id="Group_80" data-name="Group 80">
                  <rect id="Rectangle_124" data-name="Rectangle 124" width="12.745" height="0.88" transform="translate(68.48 213.141) rotate(-0.339)" fill="#fff"/>
                </g>
                <g id="Group_81" data-name="Group 81">
                  <rect id="Rectangle_125" data-name="Rectangle 125" width="12.745" height="0.88" transform="translate(68.48 202.983) rotate(-0.339)" fill="#fff"/>
                </g>
              </g>
            </g>
          </g>
        </g>
        <g id="Group_87" data-name="Group 87">
          <path id="Path_958" data-name="Path 958" d="M383.277,448.242H331.4l16.683,15.133H401.59Z" fill="#ebebeb"/>
          <g id="Group_86" data-name="Group 86">
            <path id="Path_959" data-name="Path 959" d="M324.479,471.164l-38.5-20.575,32.094-11.778,37.292,18.4Z" fill="#fff"/>
            <path id="Path_960" data-name="Path 960" d="M292.969,443.559h46.288l-13.994,17.3H273.952Z" fill="#e0e0e0"/>
          </g>
        </g>
        <g id="Group_104" data-name="Group 104">
          <circle id="Ellipse_12" data-name="Ellipse 12" cx="19.549" cy="19.549" r="19.549" transform="translate(400.287 74.033)" fill="#f0f0f0"/>
          <g id="Group_103" data-name="Group 103">
            <g id="Group_88" data-name="Group 88">
              <path id="Path_961" data-name="Path 961" d="M419.892,113.567a19.989,19.989,0,0,1,0-39.978v.879a19.109,19.109,0,0,0,0,38.219Z" fill="#fff"/>
            </g>
            <g id="Group_98" data-name="Group 98">
              <g id="Group_97" data-name="Group 97">
                <g id="Group_89" data-name="Group 89">
                  <path id="Path_962" data-name="Path 962" d="M419.892,113.567v-.88a19.109,19.109,0,0,0,0-38.219v-.879a19.989,19.989,0,1,1,0,39.978Z" fill="#fff"/>
                </g>
                <g id="Group_92" data-name="Group 92">
                  <g id="Group_90" data-name="Group 90">
                    <path id="Path_963" data-name="Path 963" d="M430.106,93.582h-.879c0-6.479-3.288-15.147-9.572-19.178l.474-.741C426.679,77.865,430.106,86.865,430.106,93.582Z" fill="#fff"/>
                  </g>
                  <g id="Group_91" data-name="Group 91">
                    <path id="Path_964" data-name="Path 964" d="M420.129,112.9l-.474-.741c6.284-4.032,9.572-12.7,9.572-19.178h.879C430.106,99.7,426.679,108.7,420.129,112.9Z" fill="#fff"/>
                  </g>
                </g>
                <g id="Group_95" data-name="Group 95">
                  <g id="Group_93" data-name="Group 93">
                    <path id="Path_965" data-name="Path 965" d="M410.558,93.578h-.88c0-6.718,3.427-15.717,9.976-19.92l.476.741C413.845,78.431,410.558,87.1,410.558,93.578Z" fill="#fff"/>
                  </g>
                  <g id="Group_94" data-name="Group 94">
                    <path id="Path_966" data-name="Path 966" d="M419.654,112.9c-6.549-4.2-9.976-13.2-9.976-19.919h.88c0,6.479,3.287,15.147,9.572,19.179Z" fill="#fff"/>
                  </g>
                </g>
                <g id="Group_96" data-name="Group 96">
                  <rect id="Rectangle_126" data-name="Rectangle 126" width="0.88" height="39.098" transform="translate(419.452 74.029)" fill="#fff"/>
                </g>
              </g>
            </g>
            <g id="Group_102" data-name="Group 102">
              <g id="Group_99" data-name="Group 99">
                <rect id="Rectangle_127" data-name="Rectangle 127" width="33.095" height="0.88" transform="translate(403.345 82.725)" fill="#fff"/>
              </g>
              <g id="Group_100" data-name="Group 100">
                <rect id="Rectangle_128" data-name="Rectangle 128" width="39.081" height="0.88" transform="translate(400.352 93.471)" fill="#fff"/>
              </g>
              <g id="Group_101" data-name="Group 101">
                <rect id="Rectangle_129" data-name="Rectangle 129" width="32.22" height="0.88" transform="translate(403.782 104.208)" fill="#fff"/>
              </g>
            </g>
          </g>
        </g>
        <g id="Group_105" data-name="Group 105">
          <path id="Path_967" data-name="Path 967" d="M365.468,200.808a114.492,114.492,0,0,0-4.957-33.524l29.412-25.871L371.4,109.333l-37.118,12.554a115.34,115.34,0,0,0-58.061-33.551l-7.707-38.4H231.482l-7.68,38.4a115.42,115.42,0,0,0-58.088,33.551L128.6,109.333l-18.519,32.08,29.412,25.871a115.953,115.953,0,0,0,0,67.075L110.077,260.2l18.519,32.08,37.118-12.554A115.658,115.658,0,0,0,223.8,313.307l7.68,38.4h37.036l7.707-38.4a115.578,115.578,0,0,0,58.061-33.578L371.4,292.283l18.519-32.08-29.412-25.844A114.674,114.674,0,0,0,365.468,200.808ZM250,263.144a60.022,60.022,0,1,1,60.021-60.021A60.007,60.007,0,0,1,250,263.144Z" fill="#e0e0e0"/>
        </g>
        <g id="Group_112" data-name="Group 112">
          <g id="Group_110" data-name="Group 110">
            <g id="Group_109" data-name="Group 109">
              <g id="Group_108" data-name="Group 108">
                <g id="Group_106" data-name="Group 106">
                  <path id="Path_968" data-name="Path 968" d="M425.2,339.4c-3.08-1.693.7-15.893-3.455-22.1-3.045-4.545-8.573-7.3-10.6-12.38a12.118,12.118,0,0,1,2.586-12.719,2.886,2.886,0,0,1,1.042-.747,3.235,3.235,0,0,1,1.4-.074c2.708.263,5.507.713,7.753,2.248,2.762,1.887,4.292,5.189,4.777,8.5S428.462,341.194,425.2,339.4Z" fill="#f0f0f0"/>
                </g>
                <g id="Group_107" data-name="Group 107">
                  <path id="Path_969" data-name="Path 969" d="M426.636,319.417c-.015-.355-.029-.71-.044-1.066a12.415,12.415,0,0,0-.117,1.723Z" fill="#f0f0f0"/>
                  <path id="Path_970" data-name="Path 970" d="M436.425,295.787a1.827,1.827,0,0,0-.614-.528,2.034,2.034,0,0,0-.875-.124,10.313,10.313,0,0,0-5,.982,7.775,7.775,0,0,0-3.477,5.079,23.019,23.019,0,0,0-.317,6.306q.225,5.425.451,10.849a12.979,12.979,0,0,1,3.393-7.225c2.375-2.508,5.8-4.114,7.358-7.2A7.653,7.653,0,0,0,436.425,295.787Z" fill="#f0f0f0"/>
                </g>
              </g>
              <path id="Path_971" data-name="Path 971" d="M431.316,361.327c0-.176-.009-.343-.022-.519-.812-11.051-2.869-31.479-12.763-41.322-2.054-2.044-5.5-3.514-8.466-2.538a7.14,7.14,0,0,0-2.8,1.846c-3.234,3.255-4.185,7.648-4.055,11.823a28.768,28.768,0,0,0,4.641,14.6c3.954,6.17,10.148,11.176,15.2,16.8s-.407,21.553,7.725,19.314C431.52,381.128,431.343,363.686,431.316,361.327Z" fill="#f0f0f0"/>
              <path id="Path_972" data-name="Path 972" d="M426.285,369.2q.324-15.158.649-30.315c.2-9.361.789-19.585,8.408-26.755,1.937-1.822,4.874-3.477,7.637-2.722a6.529,6.529,0,0,1,2.65,1.56c3.115,2.83,4.193,6.81,4.27,10.641a26.385,26.385,0,0,1-3.567,13.6c-3.333,5.839-8.773,10.715-13.139,16.1s1.383,19.726-6.171,18.056Z" fill="#f0f0f0"/>
            </g>
            <path id="Path_973" data-name="Path 973" d="M438.808,407.461h0a35.84,35.84,0,0,1-21.646,0h0l-8.473-38.59H447.28Z" fill="#f5f5f5"/>
          </g>
          <g id="Group_111" data-name="Group 111">
            <rect id="Rectangle_130" data-name="Rectangle 130" width="35.185" height="0.797" transform="translate(410.339 375.499)" fill="#fff"/>
          </g>
        </g>
      </g>
    </g>
    <g id="Smartphone_Screen" data-name="Smartphone Screen">
      <g id="Smartphone_Screen-2" data-name="Smartphone Screen">
        <g id="_Group_" data-name="&lt;Group&gt;">
          <g id="Group_118" data-name="Group 118">
            <path id="Path_974" data-name="Path 974" d="M381.239,319.641H323.756a8.9,8.9,0,0,1-9.009-9.872L325.691,184.68a10.991,10.991,0,0,1,10.736-9.872H393.91a8.9,8.9,0,0,1,9.008,9.872L391.974,309.769A10.99,10.99,0,0,1,381.239,319.641Z" fill="#407bff"/>
            <path id="Path_975" data-name="Path 975" d="M381.239,319.641H323.756a8.9,8.9,0,0,1-9.009-9.872L325.691,184.68a10.991,10.991,0,0,1,10.736-9.872H393.91a8.9,8.9,0,0,1,9.008,9.872L391.974,309.769A10.99,10.99,0,0,1,381.239,319.641Z" opacity="0.1"/>
            <path id="Path_976" data-name="Path 976" d="M357.844,310.417a5.229,5.229,0,0,1-5.108,4.7,4.235,4.235,0,0,1-4.286-4.7,5.229,5.229,0,0,1,5.108-4.7A4.235,4.235,0,0,1,357.844,310.417Z" fill="none" stroke="#fff" stroke-miterlimit="10" stroke-width="0.5" opacity="0.8"/>
            <path id="Path_977" data-name="Path 977" d="M373.538,185.992H354.926a1.577,1.577,0,0,1-1.6-1.749l.037-.432a1.948,1.948,0,0,1,1.9-1.749h18.612a1.577,1.577,0,0,1,1.6,1.749l-.037.432A1.948,1.948,0,0,1,373.538,185.992Z" fill="none" stroke="#fff" stroke-miterlimit="10" stroke-width="0.5" opacity="0.8"/>
            <path id="Path_978" data-name="Path 978" d="M387.016,298.8H320.81l9.336-106.71h66.206Z" fill="#fff" opacity="0.4"/>
            <path id="Path_979" data-name="Path 979" d="M369.828,175.258,337.771,319.641h19.266l31.739-144.383Z" fill="#fff" opacity="0.1" style="isolation: isolate"/>
            <path id="Path_980" data-name="Path 980" d="M354.839,175.258,322.781,319.641h9.713l31.739-144.383Z" fill="#fff" opacity="0.1" style="isolation: isolate"/>
            <g id="Group_113" data-name="Group 113">
              <path id="Path_981" data-name="Path 981" d="M341.855,293.027H325.486l.989-11.307h16.369Z" fill="#407bff"/>
              <path id="Path_982" data-name="Path 982" d="M362.623,293.027H346.254l.989-11.307h16.369Z" fill="#407bff"/>
              <path id="Path_983" data-name="Path 983" d="M383.391,293.027H367.022l.989-11.307H384.38Z" fill="#407bff"/>
            </g>
            <g id="Group_114" data-name="Group 114">
              <path id="Path_984" data-name="Path 984" d="M385.915,264.17H328.01l-.087,1h57.905Z" fill="#407bff"/>
              <path id="Path_985" data-name="Path 985" d="M385.915,264.17H328.01l-.087,1h57.905Z" opacity="0.2"/>
            </g>
            <g id="Group_115" data-name="Group 115">
              <path id="Path_986" data-name="Path 986" d="M386.25,260.345h-5.341l.467-5.341h5.341Z" fill="#407bff"/>
              <path id="Path_987" data-name="Path 987" d="M359.991,260.345H354.65l.467-5.341h5.341Z" fill="#407bff"/>
              <path id="Path_988" data-name="Path 988" d="M333.732,260.345h-5.341l.467-5.341H334.2Z" fill="#407bff"/>
            </g>
            <path id="Path_989" data-name="Path 989" d="M385,274.629H369.812l.321-3.669h15.189Z" fill="#407bff"/>
            <g id="Group_116" data-name="Group 116">
              <path id="Path_990" data-name="Path 990" d="M367,249.195H329.39l.326-3.723h37.612Z" fill="#407bff"/>
              <path id="Path_991" data-name="Path 991" d="M367,249.195H329.39l.326-3.723h37.612Z" fill="#fff" opacity="0.2"/>
            </g>
            <g id="Group_117" data-name="Group 117">
              <path id="Path_992" data-name="Path 992" d="M351.055,199.822H333.712l.347-3.964H351.4Z" fill="#407bff"/>
              <path id="Path_993" data-name="Path 993" d="M351.055,199.822H333.712l.347-3.964H351.4Z" fill="#fff" opacity="0.2"/>
            </g>
            <path id="Path_994" data-name="Path 994" d="M331.54,277.229h0a4.147,4.147,0,0,1-4.2-4.6h0a5.12,5.12,0,0,1,5-4.6h0a4.147,4.147,0,0,1,4.2,4.6h0A5.12,5.12,0,0,1,331.54,277.229Z" fill="#407bff"/>
            <path id="Path_995" data-name="Path 995" d="M387.734,242.471H329.949l3.492-39.913h57.785Z" fill="#407bff"/>
            <path id="Path_996" data-name="Path 996" d="M325.4,187.97h21.056a10.039,10.039,0,0,0,9.807-9.019l.363-4.143h-19.9a11.322,11.322,0,0,0-11.059,10.169Z" opacity="0.3"/>
          </g>
        </g>
        <g id="Group_119" data-name="Group 119">
          <rect id="Rectangle_131" data-name="Rectangle 131" width="4.83" height="1" transform="matrix(0.072, -0.997, 0.997, 0.072, 403.415, 211.315)" fill="#407bff"/>
          <rect id="Rectangle_132" data-name="Rectangle 132" width="14.01" height="1" transform="translate(404.07 202.23) rotate(-85.86)" fill="#407bff"/>
        </g>
      </g>
    </g>
    <g id="Monitor_Screen" data-name="Monitor Screen">
      <g id="Monitor_Screen-2" data-name="Monitor Screen">
        <g id="_Group_2" data-name="&lt;Group&gt;">
          <g id="Group_130" data-name="Group 130">
            <g id="Group_120" data-name="Group 120">
              <path id="Path_997" data-name="Path 997" d="M344.438,174.9H174.816l9.407-107.527H353.845Z" fill="#407bff"/>
              <path id="Path_998" data-name="Path 998" d="M342.1,183.312H174.954a7.742,7.742,0,0,1-7.835-8.586l9.348-106.857a9.559,9.559,0,0,1,9.338-8.586h167.15a7.742,7.742,0,0,1,7.835,8.586l-9.349,106.857A9.558,9.558,0,0,1,342.1,183.312Z" fill="#407bff"/>
            </g>
            <g id="Group_121" data-name="Group 121">
              <path id="Path_999" data-name="Path 999" d="M344.438,174.9H174.816l9.407-107.527H353.845Z" fill="#407bff"/>
              <path id="Path_1000" data-name="Path 1000" d="M344.438,174.9H174.816l9.407-107.527H353.845Z" fill="#fff" opacity="0.4"/>
            </g>
            <g id="Group_122" data-name="Group 122">
              <path id="Path_1001" data-name="Path 1001" d="M333.442,98.571H302.3l1.533-17.52h31.146Z" fill="#407bff"/>
            </g>
            <g id="Group_123" data-name="Group 123">
              <path id="Path_1002" data-name="Path 1002" d="M330.419,133.127H299.273l1.533-17.519h31.146Z" fill="#407bff"/>
            </g>
            <g id="Group_124" data-name="Group 124">
              <path id="Path_1003" data-name="Path 1003" d="M327.4,167.683H296.25l1.533-17.519h31.146Z" fill="#407bff"/>
            </g>
            <g id="Group_125" data-name="Group 125">
              <path id="Path_1004" data-name="Path 1004" d="M193.651,154.264l-.087,1H283.45l.087-1Z" fill="#407bff"/>
              <path id="Path_1005" data-name="Path 1005" d="M283.537,154.264H193.651l-.087,1H283.45Z" opacity="0.2"/>
            </g>
            <g id="Group_126" data-name="Group 126">
              <path id="Path_1006" data-name="Path 1006" d="M205.3,59.339,172.168,183.256h11.145L216.079,59.339Z" fill="#fff" opacity="0.1" style="isolation: isolate"/>
              <path id="Path_1007" data-name="Path 1007" d="M222.5,59.339,189.368,183.256h22.107L244.241,59.339Z" fill="#fff" opacity="0.1" style="isolation: isolate"/>
            </g>
            <path id="Path_1008" data-name="Path 1008" d="M284.538,142.83H194.764l5.425-62.007h89.773Z" fill="#407bff"/>
            <path id="Path_1009" data-name="Path 1009" d="M197.225,167.276h0a4.148,4.148,0,0,1-4.2-4.6h0a5.12,5.12,0,0,1,5-4.6h0a4.147,4.147,0,0,1,4.2,4.6h0A5.121,5.121,0,0,1,197.225,167.276Z" fill="#407bff"/>
            <g id="Group_127" data-name="Group 127">
              <path id="Path_1010" data-name="Path 1010" d="M238.984,150.452H194.1l.347-3.964h44.887Z" fill="#407bff"/>
              <path id="Path_1011" data-name="Path 1011" d="M238.984,150.452H194.1l.347-3.964h44.887Z" fill="#fff" opacity="0.2"/>
            </g>
            <path id="Path_1012" data-name="Path 1012" d="M282.572,164.658H265.229l.347-3.964h17.343Z" fill="#407bff"/>
            <g id="Group_128" data-name="Group 128">
              <path id="Path_1013" data-name="Path 1013" d="M283.871,150.452h-3.964l.347-3.964h3.964Z" fill="#407bff"/>
              <path id="Path_1014" data-name="Path 1014" d="M277.153,150.452h-3.964l.347-3.964H277.5Z" fill="#407bff"/>
              <path id="Path_1015" data-name="Path 1015" d="M270.435,150.452h-3.964l.347-3.964h3.964Z" fill="#407bff"/>
            </g>
            <path id="Path_1016" data-name="Path 1016" d="M290.3,77.008h-67.33l.3-3.416H290.6Z" fill="#fff" opacity="0.5"/>
            <g id="Group_129" data-name="Group 129">
              <path id="Path_1017" data-name="Path 1017" d="M217.649,77.283H200.306l.347-3.964H218Z" fill="#407bff"/>
              <path id="Path_1018" data-name="Path 1018" d="M217.649,77.283H200.306l.347-3.964H218Z" fill="#fff" opacity="0.2"/>
            </g>
          </g>
        </g>
        <g id="Group_131" data-name="Group 131">
          <rect id="Rectangle_133" data-name="Rectangle 133" width="1" height="4.83" transform="translate(334.874 56.982) rotate(-89.521)" fill="#407bff"/>
          <rect id="Rectangle_134" data-name="Rectangle 134" width="1" height="14.01" transform="translate(316.586 56.832) rotate(-89.521)" fill="#407bff"/>
        </g>
      </g>
    </g>
    <g id="Drawing_Table" data-name="Drawing Table">
      <g id="Drawing_Table-2" data-name="Drawing Table">
        <g id="Group_136" data-name="Group 136">
          <g id="Group_132" data-name="Group 132">
            <path id="Path_1019" data-name="Path 1019" d="M281.061,204.073h5.4l-9.951,110.173h-5.139Z" fill="#263238"/>
            <path id="Path_1020" data-name="Path 1020" d="M281.061,204.073h5.4l-9.951,110.173h-5.139Z" fill="#fff" opacity="0.2"/>
          </g>
          <g id="Group_133" data-name="Group 133">
            <rect id="Rectangle_135" data-name="Rectangle 135" width="1.001" height="53.784" transform="translate(279.522 257.162) rotate(-7.518)" fill="#263238"/>
          </g>
          <g id="Group_134" data-name="Group 134">
            <path id="Path_1021" data-name="Path 1021" d="M273.941,308.319H107.248l9.12-104.246H283.061Z" fill="#407bff"/>
            <path id="Path_1022" data-name="Path 1022" d="M273.941,308.319H107.248l9.12-104.246H283.061Z" fill="#fff" opacity="0.7"/>
          </g>
          <g id="Group_135" data-name="Group 135">
            <path id="Path_1023" data-name="Path 1023" d="M143.772,320.818h6.9l11.273,146.4h-4.989Z" fill="#263238"/>
            <path id="Path_1024" data-name="Path 1024" d="M309.564,319.818h6.9l11.273,147.4h-4.988Z" fill="#263238"/>
            <rect id="Rectangle_136" data-name="Rectangle 136" width="205.778" height="23.21" transform="translate(108.633 319.818)" fill="#407bff"/>
            <path id="Path_1025" data-name="Path 1025" d="M278.267,319.995l-.8,23.015,36.946.018v-23.21Z" opacity="0.3"/>
            <rect id="Rectangle_137" data-name="Rectangle 137" width="166.479" height="23.21" transform="translate(108.658 319.995)" opacity="0.2"/>
            <path id="Path_1026" data-name="Path 1026" d="M113.177,319.818h-6.9l-.2,147.4h4.981Z" fill="#263238"/>
            <path id="Path_1027" data-name="Path 1027" d="M278.969,319.818h-6.9l-.2,147.4h4.981Z" fill="#263238"/>
            <path id="Path_1028" data-name="Path 1028" d="M106.276,319.818l-.2,147.4h4.981l2.123-147.4Z" fill="#fff" opacity="0.2"/>
            <path id="Path_1029" data-name="Path 1029" d="M278.969,319.818h-6.9l-.2,147.4h4.981Z" fill="#fff" opacity="0.1"/>
            <path id="Path_1030" data-name="Path 1030" d="M100.538,314.246h0c0-3.126,1.165-5.659,2.6-5.668H319.6c1.434.009,2.6,2.542,2.6,5.668h0c-.005,3.126-1.166,5.658-2.6,5.667H103.137C101.7,319.9,100.542,317.372,100.538,314.246Z" fill="#263238"/>
            <path id="Path_1031" data-name="Path 1031" d="M100.538,314.246h0c0-3.126,1.165-5.659,2.6-5.668H319.6c1.434.009,2.6,2.542,2.6,5.668h0c-.005,3.126-1.166,5.658-2.6,5.667H103.137C101.7,319.9,100.542,317.372,100.538,314.246Z" fill="#fff" opacity="0.1"/>
            <path id="Path_1032" data-name="Path 1032" d="M266.33,314.246h0c0-3.126,1.166-5.659,2.6-5.668H319.6c1.434.009,2.6,2.542,2.6,5.668h0c-.005,3.126-1.166,5.658-2.6,5.667H268.929C267.5,319.9,266.334,317.372,266.33,314.246Z" fill="#263238"/>
          </g>
        </g>
        <g id="Group_163" data-name="Group 163">
          <g id="Group_153" data-name="Group 153">
            <g id="Group_137" data-name="Group 137">
              <path id="Path_1033" data-name="Path 1033" d="M263.324,294.886H212.868l7.115-81.323h50.456Z" fill="#fff"/>
              <path id="Path_1034" data-name="Path 1034" d="M263.78,295.386H212.325l7.2-82.323h51.455Zm-50.367-1h49.455l7.027-80.323H220.44Z" fill="#fff"/>
            </g>
            <g id="Group_152" data-name="Group 152">
              <g id="Group_141" data-name="Group 141">
                <g id="Group_138" data-name="Group 138">
                  <path id="Path_1035" data-name="Path 1035" d="M229.368,291.257H217.077l.755-8.643h12.292Zm-11.746-.5h11.287l.67-7.643H218.291Z" fill="#e0e0e0"/>
                </g>
                <g id="Group_139" data-name="Group 139">
                  <path id="Path_1036" data-name="Path 1036" d="M244.326,291.257H232.034l.756-8.643h12.291Zm-11.747-.5h11.288l.669-7.643H233.249Z" fill="#e0e0e0"/>
                </g>
                <g id="Group_140" data-name="Group 140">
                  <path id="Path_1037" data-name="Path 1037" d="M259.283,291.257H246.992l.755-8.643h12.292Zm-11.746-.5h11.287l.67-7.643H248.206Z" fill="#e0e0e0"/>
                </g>
              </g>
              <g id="Group_142" data-name="Group 142">
                <rect id="Rectangle_138" data-name="Rectangle 138" width="41.705" height="0.5" transform="translate(219.136 270.334)" fill="#e0e0e0"/>
              </g>
              <g id="Group_143" data-name="Group 143">
                <path id="Path_1038" data-name="Path 1038" d="M247.567,258.688h-27.59l.277-3.182h27.591Zm-27.046-.5h26.587l.192-2.182H220.713Z" fill="#e0e0e0"/>
              </g>
              <g id="Group_144" data-name="Group 144">
                <path id="Path_1039" data-name="Path 1039" d="M260.355,279.007H248.914l.274-3.143H260.63Zm-10.9-.5H259.9l.189-2.143H249.647Z" fill="#e0e0e0"/>
              </g>
              <g id="Group_148" data-name="Group 148">
                <g id="Group_145" data-name="Group 145">
                  <path id="Path_1040" data-name="Path 1040" d="M261.431,266.718h-4.349l.38-4.346h4.348Zm-3.8-.5h3.345l.293-3.346h-3.344Z" fill="#e0e0e0"/>
                </g>
                <g id="Group_146" data-name="Group 146">
                  <path id="Path_1041" data-name="Path 1041" d="M242.518,266.718h-4.349l.38-4.346H242.9Zm-3.8-.5h3.345l.293-3.346h-3.344Z" fill="#e0e0e0"/>
                </g>
                <g id="Group_147" data-name="Group 147">
                  <path id="Path_1042" data-name="Path 1042" d="M223.6,266.718h-4.348l.379-4.346h4.348Zm-3.8-.5h3.344l.293-3.346H220.1Z" fill="#e0e0e0"/>
                </g>
              </g>
              <g id="Group_149" data-name="Group 149">
                <path id="Path_1043" data-name="Path 1043" d="M236.257,221.128H223.264l.293-3.355H236.55Zm-12.448-.5H235.8l.207-2.355H224.016Z" fill="#e0e0e0"/>
              </g>
              <g id="Group_150" data-name="Group 150">
                <path id="Path_1044" data-name="Path 1044" d="M222.256,279.879h-1.093a2.744,2.744,0,0,1-2.773-3.038l.1-1.093a3.34,3.34,0,0,1,3.258-2.995h1.092a2.746,2.746,0,0,1,2.774,3.038l-.095,1.093A3.34,3.34,0,0,1,222.256,279.879Zm-.513-6.626a2.83,2.83,0,0,0-2.76,2.538l-.1,1.093a2.246,2.246,0,0,0,2.275,2.495h1.093a2.829,2.829,0,0,0,2.76-2.538l.095-1.093a2.244,2.244,0,0,0-2.276-2.495Z" fill="#e0e0e0"/>
              </g>
              <g id="Group_151" data-name="Group 151">
                <path id="Path_1045" data-name="Path 1045" d="M262.587,252.845H220.466l.023-.272,2.535-28.974h42.12l-.023.272Zm-41.576-.5h41.117L264.6,224.1H223.483Z" fill="#e0e0e0"/>
              </g>
            </g>
          </g>
          <g id="Group_162" data-name="Group 162">
            <g id="Group_154" data-name="Group 154">
              <rect id="Rectangle_139" data-name="Rectangle 139" width="0.5" height="48.533" transform="matrix(0.592, -0.806, 0.806, 0.592, 223.106, 224.05)" fill="#e0e0e0"/>
            </g>
            <g id="Group_155" data-name="Group 155">
              <rect id="Rectangle_140" data-name="Rectangle 140" width="28.141" height="0.501" transform="translate(220.601 252.384) rotate(-33.071)" fill="#e0e0e0"/>
            </g>
            <g id="Group_156" data-name="Group 156">
              <path id="Path_1046" data-name="Path 1046" d="M228.99,291.208l-11.077-8.143.3-.4,11.077,8.143Z" fill="#e0e0e0"/>
            </g>
            <g id="Group_157" data-name="Group 157">
              <rect id="Rectangle_141" data-name="Rectangle 141" width="14.92" height="0.501" transform="matrix(0.838, -0.546, 0.546, 0.838, 217.212, 290.796)" fill="#e0e0e0"/>
            </g>
            <g id="Group_158" data-name="Group 158">
              <path id="Path_1047" data-name="Path 1047" d="M243.948,291.208l-11.077-8.143.3-.4,11.077,8.143Z" fill="#e0e0e0"/>
            </g>
            <g id="Group_159" data-name="Group 159">
              <rect id="Rectangle_142" data-name="Rectangle 142" width="14.92" height="0.501" transform="translate(232.17 290.797) rotate(-33.078)" fill="#e0e0e0"/>
            </g>
            <g id="Group_160" data-name="Group 160">
              <path id="Path_1048" data-name="Path 1048" d="M258.905,291.208l-11.077-8.143.3-.4,11.077,8.143Z" fill="#e0e0e0"/>
            </g>
            <g id="Group_161" data-name="Group 161">
              <rect id="Rectangle_143" data-name="Rectangle 143" width="14.92" height="0.501" transform="translate(247.128 290.797) rotate(-33.078)" fill="#e0e0e0"/>
            </g>
          </g>
        </g>
        <g id="Group_191" data-name="Group 191">
          <g id="Group_182" data-name="Group 182">
            <g id="Group_164" data-name="Group 164">
              <path id="Path_1049" data-name="Path 1049" d="M206.539,277.306H113.294l5.56-63.548H212.1Z" fill="#fff"/>
              <path id="Path_1050" data-name="Path 1050" d="M206.995,277.806H112.75l5.647-64.547h94.245Zm-93.158-1h92.245l5.473-62.547H119.309Z" fill="#fff"/>
            </g>
            <g id="Group_181" data-name="Group 181">
              <g id="Group_165" data-name="Group 165">
                <rect id="Rectangle_144" data-name="Rectangle 144" width="50.618" height="0.5" transform="translate(124.144 265.995)" fill="#e0e0e0"/>
              </g>
              <g id="Group_167" data-name="Group 167">
                <g id="Group_166" data-name="Group 166">
                  <path id="Path_1051" data-name="Path 1051" d="M175.842,256.774H124.785l.024-.271,3.074-35.148h51.056l-.023.272Zm-50.512-.5h50.053l3.011-34.419H128.342Z" fill="#e0e0e0"/>
                </g>
              </g>
              <g id="Group_168" data-name="Group 168">
                <path id="Path_1052" data-name="Path 1052" d="M126.869,273.541h-1.377a1.966,1.966,0,0,1-1.984-2.174l.12-1.376a2.374,2.374,0,0,1,2.317-2.131h1.377a1.966,1.966,0,0,1,1.985,2.174l-.121,1.376A2.374,2.374,0,0,1,126.869,273.541Zm-.924-5.181a1.865,1.865,0,0,0-1.819,1.674l-.12,1.376a1.5,1.5,0,0,0,.377,1.157,1.48,1.48,0,0,0,1.109.474h1.377a1.865,1.865,0,0,0,1.819-1.674l.121-1.376a1.5,1.5,0,0,0-.377-1.158,1.485,1.485,0,0,0-1.11-.473Z" fill="#e0e0e0"/>
              </g>
              <g id="Group_169" data-name="Group 169">
                <path id="Path_1053" data-name="Path 1053" d="M150.014,263.066h-25.78l.239-2.732h25.779Zm-25.235-.5h24.776l.152-1.732H124.932Z" fill="#e0e0e0"/>
              </g>
              <g id="Group_170" data-name="Group 170">
                <path id="Path_1054" data-name="Path 1054" d="M174.472,272.066H164.2l.238-2.731H174.71Zm-9.724-.5h9.265l.152-1.731H164.9Z" fill="#e0e0e0"/>
              </g>
              <g id="Group_174" data-name="Group 174">
                <g id="Group_171" data-name="Group 171">
                  <path id="Path_1055" data-name="Path 1055" d="M175.291,263.066h-2.734l.238-2.732h2.734Zm-2.189-.5h1.73l.152-1.732h-1.73Z" fill="#e0e0e0"/>
                </g>
                <g id="Group_172" data-name="Group 172">
                  <path id="Path_1056" data-name="Path 1056" d="M171.508,263.066h-2.735l.239-2.732h2.734Zm-2.19-.5h1.731l.152-1.732h-1.73Z" fill="#e0e0e0"/>
                </g>
                <g id="Group_173" data-name="Group 173">
                  <path id="Path_1057" data-name="Path 1057" d="M167.725,263.066h-2.734l.238-2.732h2.734Zm-2.189-.5h1.73l.152-1.732h-1.73Z" fill="#e0e0e0"/>
                </g>
              </g>
              <g id="Group_175" data-name="Group 175">
                <path id="Path_1058" data-name="Path 1058" d="M179.172,218.708H140.754l.211-2.424h38.418Zm-37.873-.5h37.414l.125-1.424H141.424Z" fill="#e0e0e0"/>
              </g>
              <g id="Group_176" data-name="Group 176">
                <path id="Path_1059" data-name="Path 1059" d="M138.262,218.862H127.993l.238-2.732H138.5Zm-9.724-.5H137.8l.152-1.732H128.69Z" fill="#e0e0e0"/>
              </g>
              <g id="Group_180" data-name="Group 180">
                <g id="Group_177" data-name="Group 177">
                  <path id="Path_1060" data-name="Path 1060" d="M203.294,232.85H185.253l.9-10.366H204.2Zm-17.5-.5h17.037l.82-9.366H186.617Z" fill="#e0e0e0"/>
                </g>
                <g id="Group_178" data-name="Group 178">
                  <path id="Path_1061" data-name="Path 1061" d="M201.591,252.31H183.55l.906-10.366H202.5Zm-17.5-.5h17.037l.82-9.366H184.915Z" fill="#e0e0e0"/>
                </g>
                <g id="Group_179" data-name="Group 179">
                  <path id="Path_1062" data-name="Path 1062" d="M199.889,271.771H181.848l.906-10.367h18.041Zm-17.5-.5H199.43l.82-9.367H183.213Z" fill="#e0e0e0"/>
                </g>
              </g>
            </g>
          </g>
          <g id="Group_183" data-name="Group 183">
            <rect id="Rectangle_145" data-name="Rectangle 145" width="20.88" height="0.5" transform="matrix(0.881, -0.473, 0.473, 0.881, 185.41, 232.385)" fill="#e0e0e0"/>
          </g>
          <g id="Group_184" data-name="Group 184">
            <path id="Path_1063" data-name="Path 1063" d="M202.937,232.815l-16.677-9.866.254-.431,16.677,9.866Z" fill="#e0e0e0"/>
          </g>
          <g id="Group_185" data-name="Group 185">
            <rect id="Rectangle_146" data-name="Rectangle 146" width="20.88" height="0.5" transform="matrix(0.882, -0.472, 0.472, 0.882, 183.701, 251.833)" fill="#e0e0e0"/>
          </g>
          <g id="Group_186" data-name="Group 186">
            <rect id="Rectangle_147" data-name="Rectangle 147" width="0.5" height="19.376" transform="translate(184.558 242.41) rotate(-59.391)" fill="#e0e0e0"/>
          </g>
          <g id="Group_187" data-name="Group 187">
            <path id="Path_1064" data-name="Path 1064" d="M181.831,271.959l.938-10.722,8.558,5.064,9.077-4.867.237.441L191.83,266.6l7.956,4.708-.254.429-8.217-4.861Zm1.367-9.888-.789,9.011,8.4-4.505Z" fill="#e0e0e0"/>
          </g>
          <g id="Group_190" data-name="Group 190">
            <g id="Group_188" data-name="Group 188">
              <rect id="Rectangle_148" data-name="Rectangle 148" width="63.979" height="0.501" transform="matrix(0.838, -0.546, 0.546, 0.838, 124.918, 256.31)" fill="#e0e0e0"/>
            </g>
            <g id="Group_189" data-name="Group 189">
              <rect id="Rectangle_149" data-name="Rectangle 149" width="0.5" height="58.954" transform="matrix(0.592, -0.806, 0.806, 0.592, 127.964, 221.807)" fill="#e0e0e0"/>
            </g>
          </g>
        </g>
      </g>
    </g>
    <g id="Character">
      <g id="Character-2" data-name="Character">
        <path id="Path_1065" data-name="Path 1065" d="M182.612,434.3l-1.1,24.369s8.963,2.789,9.88-.914c.565-2.284,2.265-10.225,3.8-16.409.584-2.352.013-4.617-1.206-5.494C191.957,434.389,188.606,434.419,182.612,434.3Z" fill="#ff8b7b"/>
        <path id="Path_1066" data-name="Path 1066" d="M126.676,433.049,117.327,451.5s5.332,6.744,7.559,4.039c3.031-3.679,12.794-15.677,12.794-15.677S141.082,440.3,126.676,433.049Z" fill="#ff8b7b"/>
        <path id="Path_1067" data-name="Path 1067" d="M122.261,441.763,132.6,446.1l4.165-5.114-11.882-4.394Z" opacity="0.2"/>
        <path id="Path_1068" data-name="Path 1068" d="M182.207,443.267l-.253,5.616H193.4l1.4-5.616Z" opacity="0.2"/>
        <g id="Group_192" data-name="Group 192">
          <path id="Path_1069" data-name="Path 1069" d="M122.778,290.983l4.44,5.184,5.362-3.937s-1.782-7.753-2.6-7.2l-7.2,4.882Z" fill="#ff8b7b"/>
          <path id="Path_1070" data-name="Path 1070" d="M122.778,290.983l4.44,5.184,5.362-3.937s-1.782-7.753-2.6-7.2l-7.2,4.882Z" opacity="0.2"/>
        </g>
        <g id="Group_195" data-name="Group 195">
          <g id="Group_193" data-name="Group 193">
            <path id="Path_1071" data-name="Path 1071" d="M127.055,224.113l-19.6,17.659a8.881,8.881,0,0,0-1.188,10.183c4.885,8.973,16.51,27.087,16.51,27.087l5.7-4.1s-6.845-20.229-9.644-24.461a.581.581,0,0,1,.119-.774l16.584-13.661Z" fill="#ff8b7b"/>
          </g>
          <g id="Group_194" data-name="Group 194" opacity="0.2">
            <path id="Path_1072" data-name="Path 1072" d="M127.055,224.113l-19.6,17.659a8.881,8.881,0,0,0-1.188,10.183c4.885,8.973,16.51,27.087,16.51,27.087l5.7-4.1s-6.845-20.229-9.644-24.461a.581.581,0,0,1,.119-.774l16.584-13.661Z"/>
          </g>
          <path id="Path_1073" data-name="Path 1073" d="M122.778,279.042v10.872l8.019-5.436s.535-9.178-2.316-9.535Z" fill="#ff8b7b"/>
          <path id="Path_1074" data-name="Path 1074" d="M122.778,279.042v10.872l8.019-5.436s.535-9.178-2.316-9.535Z" opacity="0.2"/>
        </g>
        <g id="Group_196" data-name="Group 196">
          <path id="Path_1075" data-name="Path 1075" d="M168.062,367.458a73.077,73.077,0,0,1-1.8,14.34c-5.7,24.09-28.23,58.65-28.23,58.65l-13.15-4.93s18.57-50.01,20.71-62.75c1.74-10.4-14.294-48.392-18.943-63.826-3.362-11.16,1.373-21.6,1.373-21.6s12.08,1.64,26.4,2.54l5.63,25.92,2.6,12a139.2,139.2,0,0,1,4.3,20.43c.04.31.08.6.12.9.1.78.2,1.55.28,2.3A112.939,112.939,0,0,1,168.062,367.458Z" fill="#407bff"/>
          <path id="Path_1076" data-name="Path 1076" d="M168.062,367.458a73.077,73.077,0,0,1-1.8,14.34c-5.7,24.09-28.23,58.65-28.23,58.65l-13.15-4.93s18.57-50.01,20.71-62.75c1.74-10.4-14.294-48.392-18.943-63.826-3.362-11.16,1.373-21.6,1.373-21.6s12.08,1.64,26.4,2.54l5.63,25.92,2.6,12a139.2,139.2,0,0,1,4.3,20.43c.04.31.08.6.12.9.1.78.2,1.55.28,2.3A112.939,112.939,0,0,1,168.062,367.458Z" fill="#fff" opacity="0.4"/>
        </g>
        <path id="Path_1077" data-name="Path 1077" d="M168.062,367.458c-1.86-6.4-9.49-25.39-19.49-44.23-10.09-19.01,1-23.56,1-23.56,4.23,1.54,7.71,7.89,10.48,16.13,3.27,9.73,5.55,22.14,6.9,32.43.04.31.08.6.12.9.1.78.2,1.55.28,2.3A112.939,112.939,0,0,1,168.062,367.458Z" fill="#263238" opacity="0.4"/>
        <g id="Group_199" data-name="Group 199">
          <g id="Group_197" data-name="Group 197">
            <path id="Path_1078" data-name="Path 1078" d="M177.228,293.28l-34.152-2.589s-2.332,7.881-2.334,13.566c-.009,20.8,14.677,19.786,19.205,30.2,10.04,23.081,19.121,37.237,20.23,43.729.872,5.1.973,68.482.973,68.482h13.319s11.681-49.6,9.5-69.747S177.228,293.28,177.228,293.28Z" fill="#407bff"/>
          </g>
          <g id="Group_198" data-name="Group 198" opacity="0.4">
            <path id="Path_1079" data-name="Path 1079" d="M177.228,293.28l-34.152-2.589s-2.332,7.881-2.334,13.566c-.009,20.8,14.677,19.786,19.205,30.2,10.04,23.081,19.121,37.237,20.23,43.729.872,5.1.973,68.482.973,68.482h13.319s11.681-49.6,9.5-69.747S177.228,293.28,177.228,293.28Z" fill="#fff"/>
          </g>
        </g>
        <path id="Path_1080" data-name="Path 1080" d="M223.278,225.6l19.841,9.96a.869.869,0,0,1,.269.208l1.289,1.475-1.836-.054a.889.889,0,0,1-.348-.083l-20.182-9.427a.883.883,0,0,1-.446-1.13l.2-.489A.883.883,0,0,1,223.278,225.6Z" fill="#407bff"/>
        <path id="_Path_" data-name="&lt;Path&gt;" d="M226.864,234.059l6.375-3.443-1.053,9.2s-5.238,3.075-8.4-.138Z" fill="#ff8b7b"/>
        <path id="_Path_2" data-name="&lt;Path&gt;" d="M240.4,234.314l-.5,2.926a2.171,2.171,0,0,1-1.853,1.789l-5.868.784,1.053-9.2,5.493,1.213A2.172,2.172,0,0,1,240.4,234.314Z" fill="#ff8b7b"/>
        <path id="Path_1081" data-name="Path 1081" d="M178.355,233.714s5.192,26.082,17.11,30.411c10.716,3.893,32.255-22.992,32.255-22.992l-.856-7.074-27.007,17.519-10.87-27.488A135.671,135.671,0,0,0,178.355,233.714Z" fill="#ff8b7b"/>
        <g id="Group_200" data-name="Group 200">
          <path id="Path_1082" data-name="Path 1082" d="M128.606,457.381a16.563,16.563,0,0,1-2.211-2.016.211.211,0,0,1-.035-.26.222.222,0,0,1,.229-.115c.486.076,4.736.752,5.277,1.944a.708.708,0,0,1-.058.7,1.268,1.268,0,0,1-.985.626A3.626,3.626,0,0,1,128.606,457.381Zm-1.42-1.84c1.492,1.506,2.81,2.342,3.575,2.3a.83.83,0,0,0,.653-.425.261.261,0,0,0,.029-.266C131.157,456.466,128.9,455.862,127.186,455.541Z" fill="#407bff"/>
          <path id="Path_1083" data-name="Path 1083" d="M126.423,455.395a.286.286,0,0,1-.082-.112.24.24,0,0,1,.046-.22c.092-.143,2.727-3,4.456-1.771l.16.1c.456.4.418.756.308.982-.492.968-3.549,1.285-4.79,1.033Zm4.169-1.73c-1.109-.808-2.84.718-3.564,1.382,1.372.121,3.574-.27,3.866-.855,0,0,.114-.176-.2-.448Z" fill="#407bff"/>
        </g>
        <path id="Path_1084" data-name="Path 1084" d="M116.456,450.6l-4.473,7.963a1.5,1.5,0,0,0,.6,2.045c2.432,1.417,5.7,3.419,7.125,4.057,7.324,3.29,11.678,2.422,15.822,2.324a2.247,2.247,0,0,0,1.939-2.932l-.182-.623a1.555,1.555,0,0,0-1.072-1.083c-6.038-1.589-9.487-8.217-9.487-8.217l-8.376-4.091A1.475,1.475,0,0,0,116.456,450.6Z" fill="#263238"/>
        <g id="Group_201" data-name="Group 201">
          <path id="Path_1085" data-name="Path 1085" d="M194.335,460.263a16.586,16.586,0,0,1-2.7-1.293.208.208,0,0,1-.108-.239.218.218,0,0,1,.185-.175c.488-.069,4.752-.647,5.614.338a.711.711,0,0,1,.147.687,1.272,1.272,0,0,1-.763.884A3.633,3.633,0,0,1,194.335,460.263Zm-1.89-1.353c1.863,1.012,3.366,1.432,4.086,1.17a.83.83,0,0,0,.5-.594.262.262,0,0,0-.05-.264C196.514,458.65,194.184,458.722,192.445,458.91Z" fill="#407bff"/>
          <path id="Path_1086" data-name="Path 1086" d="M191.45,459.18a.3.3,0,0,1-.112-.084.241.241,0,0,1-.019-.224c.047-.163,1.746-3.661,3.756-2.981l.183.052c.552.252.617.6.578.852-.192,1.068-3.028,2.254-4.289,2.371Zm3.492-2.86c-1.295-.453-2.512,1.507-3.014,2.352,1.349-.28,3.344-1.29,3.456-1.934,0,0,.057-.2-.32-.372Z" fill="#407bff"/>
        </g>
        <path id="Path_1087" data-name="Path 1087" d="M180.114,460.578c-.124,1.7-.06,4.266,0,7,.031,1.325.823,3.513,2.023,3.971,1.861.71,4.875.487,8.3-.067,4.469-.724,11.893-4.567,14.9-6.2a2.562,2.562,0,0,0,1.13-3.3c-.137-.282-.266-.519-.374-.706a.944.944,0,0,0-.847-.472c-4.091.123-4.675-.063-8.5-.063a6.416,6.416,0,0,1-5.449-2.688s-4.6,1.423-8.166.684S180.114,460.578,180.114,460.578Z" fill="#263238"/>
        <path id="Path_1088" data-name="Path 1088" d="M145.785,209.372a92.132,92.132,0,0,0-11.176,5.659,32.735,32.735,0,0,0-9.252,7.495,3.759,3.759,0,0,0-1.054,2.636,3.924,3.924,0,0,0,.7,1.589,43.835,43.835,0,0,0,11.589,12.1,56.464,56.464,0,0,1,6.968-19.448c1.684-2.884,3.677-5.763,4.019-9.085Z" fill="#407bff"/>
        <g id="Group_207" data-name="Group 207">
          <path id="Path_1089" data-name="Path 1089" d="M196.4,189.617a24.538,24.538,0,0,0,.625,6.51c-1.479.5-3.078-.795-3.078-.795Z" fill="#a02724"/>
          <g id="Group_203" data-name="Group 203">
            <g id="Group_202" data-name="Group 202">
              <path id="Path_1090" data-name="Path 1090" d="M195.258,195.343a2.634,2.634,0,0,1-.751-.109c-1.793-.53-2.687-2.879-1.99-5.235s2.723-3.835,4.517-3.311a3.052,3.052,0,0,1,1.976,2.031,5.268,5.268,0,0,1,.014,3.2C198.439,193.9,196.855,195.343,195.258,195.343Zm1.022-8.263c-1.358,0-2.747,1.245-3.283,3.061-.619,2.092.123,4.161,1.652,4.614a2.151,2.151,0,0,0,.609.088c1.381,0,2.763-1.288,3.287-3.062a4.759,4.759,0,0,0-.008-2.9,2.565,2.565,0,0,0-1.645-1.717A2.165,2.165,0,0,0,196.28,187.08Z"/>
            </g>
          </g>
          <path id="Path_1091" data-name="Path 1091" d="M171.3,188.292l3.321,6.792,4.539,9.262a8.489,8.489,0,0,0-2.053,2.33c-1.285,1.93-2.3,3.322,1.645,6.862a2.909,2.909,0,0,1,.94,3c-.427,1.307-1.9,2.4-6.487,1.027a21.682,21.682,0,0,1-10.922-7.972c-1.345-1.786-.811-2.86.846-4.3C167.957,201.25,170.144,194.117,171.3,188.292Z" fill="#ff8b7b"/>
          <path id="Path_1092" data-name="Path 1092" d="M193.53,198.77a13.326,13.326,0,0,1-10.12,6.04,12.407,12.407,0,0,1-4.12-.35,11.391,11.391,0,0,1-7.48-6.25c-2.86-5.97-.92-11.06,1.61-19.97a12.881,12.881,0,0,1,20.76-6.4C201.55,178.18,198.18,191.55,193.53,198.77Z" fill="#ff8b7b"/>
          <path id="Path_1093" data-name="Path 1093" d="M183.41,204.81a12.407,12.407,0,0,1-4.12-.35l-.13-.11,1.36-1.37S180.59,204.54,183.41,204.81Z" opacity="0.2"/>
          <g id="Group_205" data-name="Group 205">
            <g id="Group_204" data-name="Group 204">
              <path id="Path_1094" data-name="Path 1094" d="M179.429,166.972a3.43,3.43,0,0,0-3.563-2.138,5.988,5.988,0,0,1,2.359,3Z" fill="#263238"/>
            </g>
            <path id="Path_1095" data-name="Path 1095" d="M206.858,181.565c-2.343,2.466-8.379,1.43-8.379,1.43l-2.547-2.5c-.57-.5-1.751-1.053-2.577,1.835l-1.134,2.459s-2.945,4.812-7.327,7.135c-.621.329-2.357,1.532-2.357,1.532a9.9,9.9,0,0,1-10.136.39l-1.172-.462a3.312,3.312,0,0,1-2.1-2.891c-.287-4.941-.542-17.074,3.475-21.031,3.69-3.636,5.675-2.49,6.974-2.848a12.45,12.45,0,0,1,9.827-.9c9.886,3.4,9.513,9.242,11.5,8.95a5.525,5.525,0,0,0,3.149-1.672c-.173.29-2.3,3.705-1.29,3.808,1.049.115,3.7-2.243,3.475-1.571s-3.137,3.686-1.374,4.427c1.592.669,4.206-1.706,4.206-1.706S209.21,179.1,206.858,181.565Z" fill="#263238"/>
          </g>
          <g id="Group_206" data-name="Group 206">
            <rect id="Rectangle_150" data-name="Rectangle 150" width="0.499" height="14.311" transform="translate(187.512 183.616) rotate(-56.76)"/>
          </g>
          <path id="Path_1096" data-name="Path 1096" d="M182.936,186.457a8.475,8.475,0,0,0,1.558,5.847c1.587,2.152,4.344.7,5.126-1.816.7-2.256.213-5.837-1.972-7.081S183.217,183.894,182.936,186.457Z" fill="#ff8b7b"/>
        </g>
        <g id="Group_209" data-name="Group 209">
          <g id="Group_208" data-name="Group 208">
            <path id="Path_1097" data-name="Path 1097" d="M145.785,209.372s-9.493,11.2-12.567,37.2-5.569,43.42-5.569,43.42l50.02,3.564s-1.9-16.707,0-29.538,14.659-43.383,11.844-48.305c-1.431-2.5-12.251-7.289-22.537-8.012C157.027,207,145.785,209.372,145.785,209.372Z" fill="#263238"/>
          </g>
        </g>
        <path id="Path_1098" data-name="Path 1098" d="M176.955,214.762c-2.64,2.37-4.136,5.754-5.2,9.139a12.081,12.081,0,0,0-.733,4.342,13.734,13.734,0,0,0,1.926,5.368l4.681,8.891a47.937,47.937,0,0,0,16.745-3.67,2.838,2.838,0,0,0,1.656-1.283c.514-1.2-2.622-10.685-3.038-14.431C192.106,215.136,184.024,208.419,176.955,214.762Z" fill="#407bff"/>
        <path id="Path_1099" data-name="Path 1099" d="M156.987,207.829l4.145-3.222a5.133,5.133,0,0,1,3.425-1.072c2.879.151,8.615.154,13.468,2.03,4.414,1.705,3.48,5.447,3.48,5.447S173.066,207.567,156.987,207.829Z" fill="#407bff"/>
        <path id="Path_1100" data-name="Path 1100" d="M128.35,284.942c-2.768,3.071-2.768,12.534-2.768,12.534s25.77,2.537,37.282,2.54a101.268,101.268,0,0,0,13.243-.889l.759-5.576,1.637,5.183,2.287-.515-3.632-10.781Z" fill="#407bff"/>
        <path id="Path_1101" data-name="Path 1101" d="M141.065,440.478c.069.009-2.751,5.014-2.751,5.014l-16.053-6.325,1.351-4.868Z" fill="#407bff"/>
        <path id="Path_1102" data-name="Path 1102" d="M197.643,441.232c.068-.016-.974,5.413-.974,5.413H179.587l-.455-5.033Z" fill="#407bff"/>
      </g>
    </g>
  </g>
</svg>
